<?xml version="1.0" encoding="utf-8"?>
<!-- Generator: Adobe Illustrator 18.0.0, SVG Export Plug-In . SVG Version: 6.00 Build 0)  -->
<!DOCTYPE svg PUBLIC "-//W3C//DTD SVG 1.1//EN" "http://www.w3.org/Graphics/SVG/1.1/DTD/svg11.dtd">
<svg version="1.1" id="Lager_1" xmlns="http://www.w3.org/2000/svg" xmlns:xlink="http://www.w3.org/1999/xlink" x="0px" y="0px"
	 viewBox="0 0 40 30" enable-background="new 0 0 40 30" xml:space="preserve">
<g>
	<path fill="#FFFFFF" d="M20.4,16.7H2.9c-0.7,0-1.3-0.6-1.3-1.3S2.1,14,2.9,14h17.5c0.7,0,1.3,0.6,1.3,1.3S21.1,16.7,20.4,16.7z"/>
</g>
<g>
	<g>
		<path fill="#FFFFFF" d="M20.4,16.7c-0.4,0-0.8-0.2-1-0.5L13,8.5c-0.5-0.6-0.4-1.4,0.2-1.9c0.6-0.5,1.4-0.4,1.9,0.2l6.4,7.7
			c0.5,0.6,0.4,1.4-0.2,1.9C21,16.6,20.7,16.7,20.4,16.7z"/>
	</g>
	<g>
		<path fill="#FFFFFF" d="M14,24.4c-0.3,0-0.6-0.1-0.8-0.3c-0.6-0.5-0.6-1.3-0.2-1.9l6.4-7.7c0.5-0.6,1.3-0.6,1.9-0.2
			c0.6,0.5,0.6,1.3,0.2,1.9L15,23.9C14.7,24.2,14.4,24.4,14,24.4z"/>
	</g>
</g>
<g>
	<path fill="#FFFFFF" d="M37.1,8.8h-15c-0.7,0-1.3-0.6-1.3-1.3s0.6-1.3,1.3-1.3h15c0.7,0,1.3,0.6,1.3,1.3S37.9,8.8,37.1,8.8z"/>
</g>
<g>
	<path fill="#FFFFFF" d="M37.1,14H26.5c-0.7,0-1.3-0.6-1.3-1.3s0.6-1.3,1.3-1.3h10.6c0.7,0,1.3,0.6,1.3,1.3S37.9,14,37.1,14z"/>
</g>
<g>
	<path fill="#FFFFFF" d="M37.1,19.3H26.5c-0.7,0-1.3-0.6-1.3-1.3c0-0.7,0.6-1.3,1.3-1.3h10.6c0.7,0,1.3,0.6,1.3,1.3
		C38.4,18.7,37.9,19.3,37.1,19.3z"/>
</g>
<g>
	<path fill="#FFFFFF" d="M37.1,24.5H22.9c-0.7,0-1.3-0.6-1.3-1.3c0-0.7,0.6-1.3,1.3-1.3h14.2c0.7,0,1.3,0.6,1.3,1.3
		C38.4,23.9,37.9,24.5,37.1,24.5z"/>
</g>
</svg>
